<svg width="40" height="32" viewBox="0 0 40 32" fill="none" xmlns="http://www.w3.org/2000/svg">
<path d="M2.04587 28.9797C5.24866 30.6606 8.69503 31.5 12.3916 31.5C15.2113 31.5 17.8464 31.0542 20.3007 30.1665C22.7646 29.2752 24.8616 28.0849 26.5998 26.6004C28.353 25.1031 29.8636 23.3847 31.1323 21.4441C32.4012 19.5031 33.3421 17.475 33.9576 15.359C34.575 13.2367 34.8827 11.1206 34.8827 9.00938C34.8827 8.62697 34.8749 8.28703 34.8597 7.98888L34.8458 7.71708L35.0666 7.55787C36.1496 6.77668 37.1139 5.88147 37.96 4.87157C36.9382 5.20037 35.889 5.42878 34.8127 5.55667L34.4969 4.63116C35.7432 3.88506 36.6786 2.90721 37.3101 1.69013C36.0309 2.31073 34.6839 2.76118 33.2701 3.04122L32.9983 3.09504L32.8086 2.89323C31.3045 1.2933 29.4695 0.5 27.2724 0.5C25.1748 0.5 23.3975 1.23644 21.9126 2.72118C20.4278 4.20587 19.6913 5.98302 19.6912 8.0805L2.04587 28.9797ZM2.04587 28.9797C5.85736 28.9562 9.27339 27.7651 12.277 25.412L13.3846 24.5443L11.9778 24.5185C10.3357 24.4884 8.87384 23.9854 7.57701 23.0063L7.31346 23.3554L7.57701 23.0063C6.50077 22.1937 5.70645 21.1995 5.18781 20.018C5.44129 20.041 5.69366 20.0526 5.94485 20.0526C6.70958 20.0526 7.46246 19.9528 8.20237 19.7534L8.17046 18.7804C6.42046 18.4299 4.97479 17.5629 3.81814 16.1664C2.81815 14.959 2.25344 13.5968 2.12066 12.0666C3.10775 12.494 4.14714 12.7253 5.23576 12.7593L6.98418 12.8138L5.5287 11.8435C4.49286 11.1529 3.67226 10.2539 3.0636 9.13983L3.0636 9.13981C2.45786 8.03118 2.15461 6.83278 2.15461 5.53629C2.15461 4.41529 2.38438 3.36081 2.84504 2.36793C4.81927 4.64181 7.16767 6.48105 9.88708 7.88412C12.8372 9.40625 16.0027 10.2513 19.3782 10.4196L20.0451 10.4529L19.8893 9.80356C19.758 9.25629 19.6915 8.6824 19.6912 8.0807L2.04587 28.9797Z" fill="#3AAAE3" stroke="none"/>
</svg>
